# xmcd
# Copyright (C) 1995-1998 Ti Kan
#
# Track frame offsets:
#       150
#       19454
#       38027
#       55569
#       75951
#       97440
#       116770
#       139496
#       152078
#       167622
#       179548
#       202077
#       217519
#       237854
#
# Disc length: 3338 seconds
#
# Revision: 0
# Processed by: cddbd v1.4PL0 Copyright (c) Steve Scherf et al.
# Submitted via: CD-Transfer v1.0
#
DISCID=bd0d080e
DTITLE=JimyHoferBand - Jimy Pur
DYEAR=01
DGENRE=
TTITLE0=Wenn Ig Mir Öppis Dörfti Wünsche
TTITLE1=Mäntig Abe
TTITLE2=Chalti Ouge
TTITLE3=Dr Letscht Jack Daniels
TTITLE4=Du Weisch
TTITLE5=R.O.S.T.
TTITLE6=Nume A Di
TTITLE7=Dr Boum
TTITLE8=Mir Zwöi
TTITLE9=Zupfstube Blues
TTITLE10=Ds Gröschte Für Mi
TTITLE11=So Wie Du
TTITLE12=My Fründ
TTITLE13=Get Back To The Country
EXTD=
EXTT0=
EXTT1=
EXTT2=
EXTT3=
EXTT4=
EXTT5=
EXTT6=
EXTT7=
EXTT8=
EXTT9=
EXTT10=
EXTT11=
EXTT12=
EXTT13=
PLAYORDER=
